<svg width="32" height="32" viewBox="0 0 32 32" fill="none" xmlns="http://www.w3.org/2000/svg">
<g clip-path="url(#clip0_745_297)">
<path d="M30.47 9.14H28.95V6.09H27.42V4.57H25.9V3.05H22.85V1.52H19.81V0H12.19V1.52H9.14V3.05H6.09V4.57H4.57V6.09H3.04V9.14H1.52V12.19H0V19.81H1.52V22.86H3.04V25.9H4.57V27.43H6.09V28.95H9.14V30.48H12.19V32H19.81V30.48H22.85V28.95H25.9V27.43H27.42V25.9H28.95V22.86H30.47V19.81H32V12.19H30.47V9.14ZM28.95 21.33H27.42V22.86H25.9V24.38H24.38V25.9H18.28V24.38H22.85V21.33H9.14V24.38H13.71V25.9H7.61V24.38H6.09V22.86H4.57V21.33H3.04V13.71H4.57V10.67H6.09V9.14H7.61V7.62H13.71V9.14H18.28V7.62H24.38V9.14H25.9V10.67H27.42V13.71H28.95V21.33Z" fill="#000001"/>
<path d="M21.3298 13.71H18.2798V16.76H21.3298V13.71Z" fill="#000001"/>
<path d="M13.7102 13.71H10.6602V16.76H13.7102V13.71Z" fill="#000001"/>
</g>
<defs>
<clipPath id="clip0_745_297">
<rect width="32" height="32" fill="white"/>
</clipPath>
</defs>
</svg>
