<svg width="32" height="32" viewBox="0 0 32 32" fill="none" xmlns="http://www.w3.org/2000/svg">
<g clip-path="url(#clip0_830_59)">
<path d="M1.52 12.1899H0V19.8099H1.52V12.1899Z" fill="#000001"/>
<path d="M3.05002 19.8101H1.52002V22.8601H3.05002V19.8101Z" fill="#000001"/>
<path d="M3.05002 9.13989H1.52002V12.1899H3.05002V9.13989Z" fill="#000001"/>
<path d="M4.5698 22.8601H3.0498V25.9001H4.5698V22.8601Z" fill="#000001"/>
<path d="M4.5698 6.09009H3.0498V9.14009H4.5698V6.09009Z" fill="#000001"/>
<path d="M6.09982 25.8999H4.56982V27.4299H6.09982V25.8999Z" fill="#000001"/>
<path d="M6.09982 4.57007H4.56982V6.09007H6.09982V4.57007Z" fill="#000001"/>
<path d="M9.1401 27.4299H6.1001V28.9499H9.1401V27.4299Z" fill="#000001"/>
<path d="M24.3801 12.1901H22.8601V10.6701H21.3301V9.14012H19.8101V7.62012H18.2901V10.6701H9.1401V12.1901H7.6201V13.7101H6.1001V21.3301H7.6201V22.8601H10.6701V24.3801H13.7101V22.8601H12.1901V21.3301H10.6701V19.8101H12.1901V18.2901H18.2901V21.3301H19.8101V19.8101H21.3301V18.2901H22.8601V16.7601H24.3801V15.2401H25.9101V13.7101H24.3801V12.1901Z" fill="#000001"/>
<path d="M9.1401 3.05005H6.1001V4.57005H9.1401V3.05005Z" fill="#000001"/>
<path d="M12.1901 28.95H9.14014V30.4799H12.1901V28.95Z" fill="#000001"/>
<path d="M12.1901 1.52002H9.14014V3.05002H12.1901V1.52002Z" fill="#000001"/>
<path d="M19.8099 30.48H12.1899V32H19.8099V30.48Z" fill="#000001"/>
<path d="M19.8099 0H12.1899V1.52H19.8099V0Z" fill="#000001"/>
<path d="M22.8601 28.95H19.8101V30.4799H22.8601V28.95Z" fill="#000001"/>
<path d="M22.8601 1.52002H19.8101V3.05002H22.8601V1.52002Z" fill="#000001"/>
<path d="M25.9099 27.4299H22.8599V28.9499H25.9099V27.4299Z" fill="#000001"/>
<path d="M25.9099 3.05005H22.8599V4.57005H25.9099V3.05005Z" fill="#000001"/>
<path d="M27.4302 25.8999H25.9102V27.4299H27.4302V25.8999Z" fill="#000001"/>
<path d="M27.4302 4.57007H25.9102V6.09007H27.4302V4.57007Z" fill="#000001"/>
<path d="M28.9502 22.8601H27.4302V25.9001H28.9502V22.8601Z" fill="#000001"/>
<path d="M28.9502 6.09009H27.4302V9.14009H28.9502V6.09009Z" fill="#000001"/>
<path d="M30.4802 19.8101H28.9502V22.8601H30.4802V19.8101Z" fill="#000001"/>
<path d="M30.4802 9.13989H28.9502V12.1899H30.4802V9.13989Z" fill="#000001"/>
<path d="M32 12.1899H30.48V19.8099H32V12.1899Z" fill="#000001"/>
</g>
<defs>
<clipPath id="clip0_830_59">
<rect width="32" height="32" fill="white"/>
</clipPath>
</defs>
</svg>
