<svg width="32" height="32" viewBox="0 0 32 32" fill="none" xmlns="http://www.w3.org/2000/svg">
<g clip-path="url(#clip0_830_32)">
<path d="M32 12.1899H30.48V19.8099H32V12.1899Z" fill="#000001"/>
<path d="M30.4802 19.8101H28.9502V22.8601H30.4802V19.8101Z" fill="#000001"/>
<path d="M30.4802 9.13989H28.9502V12.1899H30.4802V9.13989Z" fill="#000001"/>
<path d="M28.9502 22.8601H27.4302V25.9001H28.9502V22.8601Z" fill="#000001"/>
<path d="M28.9502 6.09009H27.4302V9.14009H28.9502V6.09009Z" fill="#000001"/>
<path d="M27.4299 25.8999H25.8999V27.4299H27.4299V25.8999Z" fill="#000001"/>
<path d="M27.4299 4.57007H25.8999V6.09007H27.4299V4.57007Z" fill="#000001"/>
<path d="M25.8999 27.4299H22.8599V28.9499H25.8999V27.4299Z" fill="#000001"/>
<path d="M24.3798 12.1901H22.8598V10.6701H13.7098V7.62012H12.1898V9.14012H10.6698V10.6701H9.13984V12.1901H7.61984V13.7101H6.08984V15.2401H7.61984V16.7601H9.13984V18.2901H10.6698V19.8101H12.1898V21.3301H13.7098V18.2901H19.8098V19.8101H21.3298V21.3301H19.8098V22.8601H18.2898V24.3801H21.3298V22.8601H24.3798V21.3301H25.8998V13.7101H24.3798V12.1901Z" fill="#000001"/>
<path d="M25.8999 3.05005H22.8599V4.57005H25.8999V3.05005Z" fill="#000001"/>
<path d="M22.8601 28.95H19.8101V30.4799H22.8601V28.95Z" fill="#000001"/>
<path d="M22.8601 1.52002H19.8101V3.05002H22.8601V1.52002Z" fill="#000001"/>
<path d="M19.8099 30.48H12.1899V32H19.8099V30.48Z" fill="#000001"/>
<path d="M19.8099 0H12.1899V1.52H19.8099V0Z" fill="#000001"/>
<path d="M12.1901 28.95H9.14014V30.4799H12.1901V28.95Z" fill="#000001"/>
<path d="M12.1901 1.52002H9.14014V3.05002H12.1901V1.52002Z" fill="#000001"/>
<path d="M9.13984 27.4299H6.08984V28.9499H9.13984V27.4299Z" fill="#000001"/>
<path d="M9.13984 3.05005H6.08984V4.57005H9.13984V3.05005Z" fill="#000001"/>
<path d="M6.08982 25.8999H4.56982V27.4299H6.08982V25.8999Z" fill="#000001"/>
<path d="M6.08982 4.57007H4.56982V6.09007H6.08982V4.57007Z" fill="#000001"/>
<path d="M4.5698 22.8601H3.0498V25.9001H4.5698V22.8601Z" fill="#000001"/>
<path d="M4.5698 6.09009H3.0498V9.14009H4.5698V6.09009Z" fill="#000001"/>
<path d="M3.05002 19.8101H1.52002V22.8601H3.05002V19.8101Z" fill="#000001"/>
<path d="M3.05002 9.13989H1.52002V12.1899H3.05002V9.13989Z" fill="#000001"/>
<path d="M1.52 12.1899H0V19.8099H1.52V12.1899Z" fill="#000001"/>
</g>
<defs>
<clipPath id="clip0_830_32">
<rect width="32" height="32" fill="white"/>
</clipPath>
</defs>
</svg>
