<svg width="18" height="18" viewBox="0 0 18 18" fill="none" xmlns="http://www.w3.org/2000/svg">
<path fill-rule="evenodd" clip-rule="evenodd" d="M4 0H11V1C11.0693 1.73288 11.3043 1.9347 12 2H13V3C13.0693 3.73288 13.3043 3.9347 14 4H15V11H14C13.2671 11.0693 13.0653 11.3043 13 12V13H12C11.2671 13.0693 11.0653 13.3043 11 14V15H4V14C3.93066 13.2671 3.69565 13.0653 3 13H2V12C1.93066 11.2671 1.69565 11.0653 1 11H0V4H1C1.73288 3.93066 1.9347 3.69565 2 3V2H3C3.73288 1.93066 3.9347 1.69565 4 1V0ZM5 13C4.30435 12.9347 4.06934 12.7329 4 12V11H3C2.30435 10.9347 2.06934 10.7329 2 10L2 5C2.0653 4.30435 2.26712 4.06934 3 4H4V3C4.0653 2.30435 4.26712 2.06934 5 2L10 2C10.6957 2.0653 10.9307 2.26712 11 3V4H12C12.6957 4.0653 12.9307 4.26712 13 5V10C12.9347 10.6957 12.7329 10.9307 12 11H11V12C10.9347 12.6957 10.7329 12.9307 10 13H5ZM16 17V18H18V16H17C16.3043 15.9347 16.0693 15.7329 16 15V14H14V16H15C15.6957 16.0653 15.9307 16.2671 16 17Z" fill="white"/>
</svg>
