<svg width="32" height="32" viewBox="0 0 32 32" fill="none" xmlns="http://www.w3.org/2000/svg">
<g clip-path="url(#clip0_745_373)">
<path d="M16.7599 22.8499L16.7599 21.3299L18.2799 21.3299L18.2799 19.8099L19.8099 19.8099L19.8099 18.2799L21.3299 18.2799L21.3299 16.7599L22.8599 16.7599L22.8599 15.2399L24.3799 15.2399L24.3799 13.7099L25.8999 13.7099L25.8999 12.1899L7.6199 12.1899L7.6199 13.7099L9.1399 13.7099L9.1399 15.2399L10.6599 15.2399L10.6599 16.7599L12.1899 16.7599L12.1899 18.2799L13.7099 18.2799L13.7099 24.3799L15.2399 24.3799L15.2399 22.8499L16.7599 22.8499ZM13.7099 15.2399L13.7099 13.7099L19.8099 13.7099L19.8099 15.2399L13.7099 15.2399Z" fill="#000001"/>
<path d="M19.8101 32L19.8101 30.47L12.1901 30.47L12.1901 32L19.8101 32Z" fill="#000001"/>
<path d="M12.1899 30.4699L12.1899 28.95L9.13994 28.95L9.13994 30.4699L12.1899 30.4699Z" fill="#000001"/>
<path d="M22.8599 30.4699L22.8599 28.95L19.8099 28.95L19.8099 30.4699L22.8599 30.4699Z" fill="#000001"/>
<path d="M9.14014 28.9501L9.14014 27.4301L6.09014 27.4301L6.09014 28.9501L9.14014 28.9501Z" fill="#000001"/>
<path d="M25.8999 28.9501L25.8999 27.4301L22.8599 27.4301L22.8599 28.9501L25.8999 28.9501Z" fill="#000001"/>
<path d="M6.08984 27.43L6.08984 25.9L4.56984 25.9L4.56984 27.43L6.08984 27.43Z" fill="#000001"/>
<path d="M27.4302 27.43L27.4302 25.9L25.9002 25.9L25.9002 27.43L27.4302 27.43Z" fill="#000001"/>
<path d="M4.56982 25.9L4.56982 22.85L3.04982 22.85L3.04982 25.9L4.56982 25.9Z" fill="#000001"/>
<path d="M28.9502 25.9L28.9502 22.85L27.4302 22.85L27.4302 25.9L28.9502 25.9Z" fill="#000001"/>
<path d="M3.0498 22.8501L3.0498 19.8101L1.51981 19.8101L1.51981 22.8501L3.0498 22.8501Z" fill="#000001"/>
<path d="M30.4702 22.8501L30.4702 19.8101L28.9502 19.8101L28.9502 22.8501L30.4702 22.8501Z" fill="#000001"/>
<path d="M1.52002 19.8099L1.52002 12.1899L1.90735e-05 12.1899L1.87404e-05 19.8099L1.52002 19.8099Z" fill="#000001"/>
<path d="M32 19.8099L32 12.1899L30.47 12.1899L30.47 19.8099L32 19.8099Z" fill="#000001"/>
<path d="M3.0498 12.19L3.0498 9.14001L1.51981 9.14001L1.51981 12.19L3.0498 12.19Z" fill="#000001"/>
<path d="M30.4702 12.19L30.4702 9.14001L28.9502 9.14001L28.9502 12.19L30.4702 12.19Z" fill="#000001"/>
<path d="M4.56982 9.13997L4.56982 6.08997L3.04982 6.08997L3.04982 9.13997L4.56982 9.13997Z" fill="#000001"/>
<path d="M28.9502 9.13997L28.9502 6.08997L27.4302 6.08997L27.4302 9.13997L28.9502 9.13997Z" fill="#000001"/>
<path d="M6.08984 6.08995L6.08984 4.56995L4.56984 4.56995L4.56984 6.08995L6.08984 6.08995Z" fill="#000001"/>
<path d="M27.4302 6.08995L27.4302 4.56995L25.9002 4.56995L25.9002 6.08995L27.4302 6.08995Z" fill="#000001"/>
<path d="M9.14014 4.57004L9.14014 3.04004L6.09014 3.04004L6.09014 4.57004L9.14014 4.57004Z" fill="#000001"/>
<path d="M25.8999 4.57004L25.8999 3.04004L22.8599 3.04004L22.8599 4.57004L25.8999 4.57004Z" fill="#000001"/>
<path d="M12.1899 3.04002L12.1899 1.52002L9.13994 1.52002L9.13994 3.04002L12.1899 3.04002Z" fill="#000001"/>
<path d="M22.8599 3.04002L22.8599 1.52002L19.8099 1.52002L19.8099 3.04002L22.8599 3.04002Z" fill="#000001"/>
<path d="M19.8101 1.52L19.8101 0L12.1901 -3.33081e-07L12.1901 1.52L19.8101 1.52Z" fill="#000001"/>
</g>
<defs>
<clipPath id="clip0_745_373">
<rect width="32" height="32" fill="white" transform="translate(32) rotate(90)"/>
</clipPath>
</defs>
</svg>
