<svg width="32" height="32" viewBox="0 0 32 32" fill="none" xmlns="http://www.w3.org/2000/svg">
<g clip-path="url(#clip0_745_293)">
<path d="M1.52 22.86H3.04V25.9H4.57V27.43H6.09V28.95H9.14V30.48H12.19V32H19.81V30.48H22.85V28.95H25.9V27.43H27.42V25.9H28.95V22.86H30.47V19.81H32V12.19H30.47V9.14H28.95V6.09H27.42V4.57H25.9V3.05H22.85V1.52H19.81V0H12.19V1.52H9.14V3.05H6.09V4.57H4.57V6.09H3.04V9.14H1.52V12.19H0V19.81H1.52V22.86ZM7.61 9.14H9.14V10.67H10.66V12.19H12.19V13.71H15.23V9.14H16.76V7.62H22.85V9.14H24.38V12.19H27.42V13.71H25.9V15.24H24.38V19.81H22.85V22.86H21.33V24.38H19.81V25.9H9.14V24.38H10.66V22.86H12.19V21.33H13.71V19.81H10.66V18.29H9.14V16.76H7.61V9.14Z" fill="#000001"/>
<path d="M22.8501 10.67H19.8101V13.71H22.8501V10.67Z" fill="#000001"/>
</g>
<defs>
<clipPath id="clip0_745_293">
<rect width="32" height="32" fill="white"/>
</clipPath>
</defs>
</svg>
