<svg width="32" height="32" viewBox="0 0 32 32" fill="none" xmlns="http://www.w3.org/2000/svg">
<g clip-path="url(#clip0_745_302)">
<path d="M30.47 9.14001H28.95V10.67H25.9V9.14001H24.38V10.67H7.62V9.14001H6.09V10.67H3.05V9.14001H1.52V12.19H0V19.81H1.52V22.86H3.05V21.33H6.09V22.86H7.62V21.33H24.38V22.86H25.9V21.33H28.95V22.86H30.47V19.81H32V12.19H30.47V9.14001ZM10.66 18.28H9.14V19.81H7.62V18.28H6.09V19.81H4.57V18.28H3.05V13.71H4.57V18.28H6.09V15.24H7.62V18.28H9.14V13.71H10.66V18.28ZM19.81 18.28H18.28V19.81H16.76V18.28H15.24V19.81H13.71V18.28H12.19V13.71H13.71V18.28H15.24V15.24H16.76V18.28H18.28V13.71H19.81V18.28ZM28.95 18.28H27.43V19.81H25.9V18.28H24.38V19.81H22.85V18.28H21.33V13.71H22.85V18.28H24.38V15.24H25.9V18.28H27.43V13.71H28.95V18.28Z" fill="#000001"/>
<path d="M28.9502 22.86H27.4302V25.9H28.9502V22.86Z" fill="#000001"/>
<path d="M28.9502 6.08997H27.4302V9.13997H28.9502V6.08997Z" fill="#000001"/>
<path d="M27.4299 25.9H25.8999V27.43H27.4299V25.9Z" fill="#000001"/>
<path d="M27.4299 4.56995H25.8999V6.08995H27.4299V4.56995Z" fill="#000001"/>
<path d="M25.9001 7.61995V6.08995H21.3301V4.56995H19.8101V7.61995H22.8501V9.13995H24.3801V7.61995H25.9001Z" fill="#000001"/>
<path d="M25.9001 27.4301H22.8501V28.9501H25.9001V27.4301Z" fill="#000001"/>
<path d="M22.8501 24.38H19.8101V27.43H21.3301V25.9H25.9001V24.38H24.3801V22.86H22.8501V24.38Z" fill="#000001"/>
<path d="M25.9001 3.05005H22.8501V4.57005H25.9001V3.05005Z" fill="#000001"/>
<path d="M22.8501 28.95H19.8101V30.4799H22.8501V28.95Z" fill="#000001"/>
<path d="M22.8501 1.52002H19.8101V3.05002H22.8501V1.52002Z" fill="#000001"/>
<path d="M19.8098 27.4301H18.2798V28.9501H19.8098V27.4301Z" fill="#000001"/>
<path d="M19.8098 3.05005H18.2798V4.57005H19.8098V3.05005Z" fill="#000001"/>
<path d="M18.2799 28.95H16.7599V30.4799H15.2399V28.95H13.7099V30.4799H12.1899V32H19.8099V30.4799H18.2799V28.95Z" fill="#000001"/>
<path d="M19.8099 7.62H12.1899V9.14H19.8099V7.62Z" fill="#000001"/>
<path d="M19.8099 22.86H12.1899V24.38H19.8099V22.86Z" fill="#000001"/>
<path d="M13.7099 3.05H15.2399V1.52H16.7599V3.05H18.2799V1.52H19.8099V0H12.1899V1.52H13.7099V3.05Z" fill="#000001"/>
<path d="M13.7099 27.4301H12.1899V28.9501H13.7099V27.4301Z" fill="#000001"/>
<path d="M13.7099 3.05005H12.1899V4.57005H13.7099V3.05005Z" fill="#000001"/>
<path d="M12.1901 28.95H9.14014V30.4799H12.1901V28.95Z" fill="#000001"/>
<path d="M12.1901 1.52002H9.14014V3.05002H12.1901V1.52002Z" fill="#000001"/>
<path d="M9.13984 27.4301H6.08984V28.9501H9.13984V27.4301Z" fill="#000001"/>
<path d="M9.13984 7.61995H12.1898V4.56995H10.6598V6.08995H6.08984V7.61995H7.61984V9.13995H9.13984V7.61995Z" fill="#000001"/>
<path d="M9.13984 3.05005H6.08984V4.57005H9.13984V3.05005Z" fill="#000001"/>
<path d="M6.08984 24.38V25.9H10.6598V27.43H12.1898V24.38H9.13984V22.86H7.61984V24.38H6.08984Z" fill="#000001"/>
<path d="M6.08982 25.9H4.56982V27.43H6.08982V25.9Z" fill="#000001"/>
<path d="M6.08982 4.56995H4.56982V6.08995H6.08982V4.56995Z" fill="#000001"/>
<path d="M4.5698 22.86H3.0498V25.9H4.5698V22.86Z" fill="#000001"/>
<path d="M4.5698 6.08997H3.0498V9.13997H4.5698V6.08997Z" fill="#000001"/>
</g>
<defs>
<clipPath id="clip0_745_302">
<rect width="32" height="32" fill="white"/>
</clipPath>
</defs>
</svg>
